<svg id="Layer_1" data-name="Layer 1" xmlns="http://www.w3.org/2000/svg" xmlns:xlink="http://www.w3.org/1999/xlink" viewBox="0 0 411.5 101"><defs><style>.cls-1{fill:none;}.cls-2{fill:#fabe17;}.cls-3{fill:#0a9c58;}.cls-4{fill:#be3c27;}.cls-11,.cls-12,.cls-4,.cls-5,.cls-6{opacity:0.2;isolation:isolate;}.cls-5{fill:#273238;}.cls-6{fill:#fff;}.cls-7{fill:url(#radial-gradient);}.cls-8{fill:url(#radial-gradient-2);}.cls-9{fill:#547dbf;}.cls-10{fill:#da4635;}.cls-11{fill:#2c3279;}.cls-12{fill:#3f2723;}.cls-13{fill:url(#radial-gradient-3);}.cls-14{opacity:0.54;}.cls-15{fill:#010101;}.cls-16{font-size:56.3px;fill:#777;font-family:ProductSans-Regular, Product Sans;}.cls-17{letter-spacing:-0.01em;}.cls-18{letter-spacing:-0.01em;}.cls-19{letter-spacing:0em;}</style><radialGradient id="radial-gradient" cx="-493.66" cy="1886.66" r="1.77" gradientTransform="matrix(10, 0, 0, -10, 4972.15, 18930.06)" gradientUnits="userSpaceOnUse"><stop offset="0" stop-color="#be3c27" stop-opacity="0.2"/><stop offset="1" stop-color="#be3c27" stop-opacity="0.02"/></radialGradient><radialGradient id="radial-gradient-2" cx="-493.66" cy="1886.64" r="1.78" gradientTransform="matrix(10, 0, 0, -10, 4972.15, 18930.06)" gradientUnits="userSpaceOnUse"><stop offset="0" stop-color="#273238" stop-opacity="0.2"/><stop offset="1" stop-color="#273238" stop-opacity="0.02"/></radialGradient><radialGradient id="radial-gradient-3" cx="-496.06" cy="1890.7" r="5.36" gradientTransform="matrix(10, 0, 0, -10, 4972.15, 18930.06)" gradientUnits="userSpaceOnUse"><stop offset="0" stop-color="#fff" stop-opacity="0.1"/><stop offset="1" stop-color="#fff" stop-opacity="0"/></radialGradient></defs><title>LogoGDG</title><g id="_Group_" data-name="&lt;Group&gt;"><g id="_Group_2" data-name="&lt;Group&gt;"><path class="cls-1" d="M43.21,45.78,29.81,22.62H11.9L26.69,48.18,11.9,73.73H29.81L43.21,50.58A4.78,4.78,0,0,0,43.21,45.78Z"/><polygon id="_Path_" data-name="&lt;Path&gt;" class="cls-2" points="35.52 63.46 31.28 56.12 21.09 73.73 29.81 73.73 35.64 63.66 35.52 63.46"/><path class="cls-1" d="M43.21,45.78,29.81,22.62H11.9L26.69,48.18,11.9,73.73H29.81L43.21,50.58A4.78,4.78,0,0,0,43.21,45.78Z"/><polygon class="cls-3" points="26.69 48.18 31.28 56.12 21.09 73.73 11.9 73.73 26.69 48.18"/><path class="cls-1" d="M43.21,45.78,29.81,22.62H11.9L26.69,48.18,11.9,73.73H29.81L43.21,50.58A4.78,4.78,0,0,0,43.21,45.78Z"/><polygon class="cls-4" points="29.81 73.33 21.32 73.33 21.09 73.73 29.81 73.73 35.64 63.66 35.52 63.46 29.81 73.33"/><path class="cls-1" d="M43.21,45.78,29.81,22.62H11.9L26.69,48.18,11.9,73.73H29.81L43.21,50.58A4.78,4.78,0,0,0,43.21,45.78Z"/><polygon class="cls-5" points="12.14 73.33 11.9 73.73 21.09 73.73 21.32 73.33 12.14 73.33"/><path class="cls-1" d="M43.21,45.78,29.81,22.62H11.9L26.69,48.18,11.9,73.73H29.81L43.21,50.58A4.78,4.78,0,0,0,43.21,45.78Z"/><polygon class="cls-6" points="11.9 73.73 12.14 73.73 26.8 48.38 26.69 48.18 11.9 73.73"/><path class="cls-1" d="M43.21,45.78,29.81,22.62H11.9L26.69,48.18,11.9,73.73H29.81L43.21,50.58A4.78,4.78,0,0,0,43.21,45.78Z"/><polygon id="_Path_2" data-name="&lt;Path&gt;" class="cls-7" points="35.64 63.66 35.64 63.66 31.28 56.12 30.21 57.97 35.64 63.66"/><path class="cls-1" d="M43.21,45.78,29.81,22.62H11.9L26.69,48.18,11.9,73.73H29.81L43.21,50.58A4.78,4.78,0,0,0,43.21,45.78Z"/><polygon id="_Path_3" data-name="&lt;Path&gt;" class="cls-8" points="30.21 57.97 31.28 56.12 26.69 48.18 24.49 51.97 30.21 57.97"/><path class="cls-1" d="M43.21,45.78,29.81,22.62H11.9L26.69,48.18,11.9,73.73H29.81L43.21,50.58A4.78,4.78,0,0,0,43.21,45.78Z"/><g id="_Group_3" data-name="&lt;Group&gt;"><g id="_Group_4" data-name="&lt;Group&gt;"><polygon id="_Path_4" data-name="&lt;Path&gt;" class="cls-9" points="21.09 22.63 11.9 22.63 35.64 63.66 40.23 55.73 40.23 55.72 21.09 22.63"/></g></g><path class="cls-1" d="M43.21,45.78,29.81,22.62H11.9L26.69,48.18,11.9,73.73H29.81L43.21,50.58A4.78,4.78,0,0,0,43.21,45.78Z"/><path class="cls-10" d="M43.21,50.58a4.78,4.78,0,0,0,0-4.79L29.81,22.62H21.09L40.23,55.72Z"/><path class="cls-1" d="M43.21,45.78,29.81,22.62H11.9L26.69,48.18,11.9,73.73H29.81L43.21,50.58A4.78,4.78,0,0,0,43.21,45.78Z"/><polygon class="cls-11" points="40.23 55.72 40.12 55.52 35.64 63.26 12.14 22.63 11.9 22.63 35.64 63.66 40.23 55.73 40.23 55.72"/><path class="cls-1" d="M43.21,45.78,29.81,22.62H11.9L26.69,48.18,11.9,73.73H29.81L43.21,50.58A4.78,4.78,0,0,0,43.21,45.78Z"/><path class="cls-6" d="M29.81,23,43.21,46.18a4.77,4.77,0,0,1,.63,2.2,4.78,4.78,0,0,0-.63-2.6L29.81,22.62H11.9l.23.4Z"/><path class="cls-1" d="M43.21,45.78,29.81,22.62H11.9L26.69,48.18,11.9,73.73H29.81L43.21,50.58A4.78,4.78,0,0,0,43.21,45.78Z"/><path id="_Path_5" data-name="&lt;Path&gt;" class="cls-12" d="M40.23,55.72l3-5.14a4.78,4.78,0,0,0,.63-2.6,4.77,4.77,0,0,1-.63,2.2l-3.09,5.35Z"/><path class="cls-1" d="M43.21,45.78,29.81,22.62H11.9L26.69,48.18,11.9,73.73H29.81L43.21,50.58A4.78,4.78,0,0,0,43.21,45.78Z"/><path id="_Path_6" data-name="&lt;Path&gt;" class="cls-13" d="M43.21,45.78,29.81,22.62H11.9L26.69,48.18,11.9,73.73H29.81L43.21,50.58A4.78,4.78,0,0,0,43.21,45.78Z"/></g></g><g id="Layer_4" data-name="Layer 4"><g id="_Group_5" data-name="&lt;Group&gt;" class="cls-14"><path id="_Compound_Path_" data-name="&lt;Compound Path&gt;" class="cls-15" d="M108.72,27.09h12.22c12.44,0,20.25,8.26,20.25,19.85s-7.81,19.85-20.25,19.85H108.72V27.09Zm12.43,33.68c8.66,0,14-4.81,14-13.83s-5.37-13.83-14-13.83h-6.42V60.76Z"/><rect id="_Path_7" data-name="&lt;Path&gt;" class="cls-1" x="62.8" y="26.05" width="122.68" height="43.3"/><path id="_Path_8" data-name="&lt;Path&gt;" class="cls-15" d="M103.7,45.13h-19V51H98.08a12.08,12.08,0,0,1-3,6.92,14,14,0,0,1-10.55,4.18,15.18,15.18,0,0,1,0-30.36,14.55,14.55,0,0,1,10.29,4.08l4-4A19.89,19.89,0,0,0,84.49,26,21.18,21.18,0,0,0,63.3,46.94,21.18,21.18,0,0,0,84.49,67.82c6.21,0,10.9-2,14.57-5.86S104,52.9,104,48.62A17.73,17.73,0,0,0,103.7,45.13Z"/><path id="_Path_9" data-name="&lt;Path&gt;" class="cls-15" d="M185.48,45.13h-19V51h13.42a12.08,12.08,0,0,1-3,6.92,14,14,0,0,1-10.55,4.18,15.18,15.18,0,0,1,0-30.36,14.55,14.55,0,0,1,10.29,4.08l4-4A19.89,19.89,0,0,0,166.28,26a21.18,21.18,0,0,0-21.19,20.89,21.18,21.18,0,0,0,21.19,20.89c6.21,0,10.9-2,14.57-5.86s4.94-9.07,4.94-13.35A17.74,17.74,0,0,0,185.48,45.13Z"/></g></g><text class="cls-16" transform="translate(201.11 66.87)">Me<tspan class="cls-17" x="76.91" y="0">k</tspan><tspan class="cls-18" x="103.25" y="0">o</tspan><tspan class="cls-19" x="134.22" y="0">n</tspan><tspan x="164.45" y="0">g</tspan></text></svg>